<svg id="meter" width="67" height="58" viewBox="0 0 67 58" fill="none" xmlns="http://www.w3.org/2000/svg">
<path d="M53.6046 56.6838C55.1631 58.3443 57.8189 58.3533 59.1636 56.5153C62.3013 52.2262 64.4697 47.2003 65.4727 41.8282C66.7404 35.0388 66.0898 28.0015 63.6032 21.6061C61.1166 15.2107 56.9057 9.74441 51.503 5.89856C46.1003 2.05271 39.7484 3.16321e-07 33.2507 0C26.7529 -3.16321e-07 20.401 2.05271 14.9983 5.89856C9.59564 9.74441 5.38474 15.2107 2.89815 21.6061C0.411559 28.0015 -0.239047 35.0388 1.02861 41.8282C2.03165 47.2003 4.20005 52.2262 7.33779 56.5153C8.6824 58.3533 11.3382 58.3442 12.8968 56.6838C14.3219 55.1656 14.2939 52.8161 13.0948 51.1137C10.8386 47.9106 9.27417 44.1966 8.53496 40.2375C7.56261 35.0298 8.06165 29.6318 9.96898 24.7263C11.8763 19.8207 15.1062 15.6279 19.2503 12.6779C23.3945 9.72801 28.2666 8.15349 33.2507 8.15349C38.2347 8.15349 43.1069 9.72801 47.251 12.6779C51.3951 15.6279 54.625 19.8207 56.5324 24.7263C58.4397 29.6318 58.9387 35.0298 57.9664 40.2375C57.2272 44.1966 55.6628 47.9106 53.4066 51.1137C52.2074 52.8161 52.1794 55.1656 53.6046 56.6838Z" fill="#00AE07"/>
</svg>
