<svg width="14" height="14" viewBox="0 0 14 14" fill="none" xmlns="http://www.w3.org/2000/svg">
<path d="M6.648 0C3.02099 0 0.0773315 3.136 0.0773315 7C0.0773315 10.864 3.02099 14 6.648 14C10.275 14 13.2187 10.864 13.2187 7C13.2187 3.136 10.275 0 6.648 0ZM7.30507 11.9H5.99094V10.5H7.30507V11.9ZM8.6652 6.475L8.07384 7.119C7.60075 7.63 7.30507 8.05 7.30507 9.1H5.99094V8.75C5.99094 7.98 6.28662 7.28 6.7597 6.769L7.57447 5.887C7.81758 5.635 7.96214 5.285 7.96214 4.9C7.96214 4.13 7.37078 3.5 6.648 3.5C5.92523 3.5 5.33387 4.13 5.33387 4.9H4.01973C4.01973 3.353 5.19588 2.1 6.648 2.1C8.10012 2.1 9.27627 3.353 9.27627 4.9C9.27627 5.516 9.03973 6.076 8.6652 6.475Z" fill="#6A6A6A"/>
</svg>
