<?xml version="1.0" encoding="iso-8859-1"?>
<!-- Generator: Adobe Illustrator 19.0.0, SVG Export Plug-In . SVG Version: 6.00 Build 0)  -->
<svg version="1.1" id="Layer_1" xmlns="http://www.w3.org/2000/svg" xmlns:xlink="http://www.w3.org/1999/xlink" x="0px" y="0px"
	 viewBox="0 0 512 512" style="enable-background:new 0 0 512 512;" xml:space="preserve">
<g transform="translate(-1)">
	<g>
		<g>
			<path d="M256.999,221.867c-79.992,0-145.067,65.34-145.067,145.647c0,79.667,65.075,144.486,145.067,144.486
				s145.067-64.819,145.067-144.486C402.066,287.206,336.991,221.867,256.999,221.867z M163.132,367.514
				c0,4.719-3.814,8.533-8.533,8.533s-8.533-3.814-8.533-8.533c0-61.491,49.766-111.514,110.933-111.514
				c4.719,0,8.533,3.814,8.533,8.533c0,4.71-3.814,8.533-8.533,8.533C205.244,273.067,163.132,315.426,163.132,367.514z
				 M239.933,435.2c-1.963,0-3.942-0.674-5.547-2.065c-3.584-3.063-4.002-8.448-0.93-12.023l39.125-45.645h-49.715
				c-3.447,0-6.571-2.082-7.885-5.274c-1.323-3.191-0.589-6.852,1.852-9.293l51.2-51.2c3.337-3.337,8.73-3.337,12.066,0
				c3.337,3.328,3.337,8.73,0,12.066L243.465,358.4h47.667c3.337,0,6.357,1.937,7.748,4.966c1.391,3.021,0.905,6.588-1.271,9.114
				l-51.2,59.733C244.728,434.185,242.33,435.2,239.933,435.2z M367.933,367.514c0,60.851-49.766,110.353-110.933,110.353
				c-4.719,0-8.533-3.823-8.533-8.533c0-4.719,3.814-8.533,8.533-8.533c51.755,0,93.867-41.856,93.867-93.286
				c0-4.719,3.814-8.533,8.533-8.533C364.118,358.98,367.933,362.795,367.933,367.514z"/>
			<path d="M501.966,62.839L458.668,19.54c-1.143,2.389-2.628,4.634-4.523,6.622l-81.186,85.35
				c-4.813,5.052-11.571,7.953-18.551,7.953h-36.139L257,183.867l-61.269-64.401h-36.139c-6.98,0-13.739-2.901-18.551-7.962
				L59.854,26.179c-1.886-1.997-3.379-4.25-4.523-6.639L12.034,62.839c-1.604,1.596-2.5,3.772-2.5,6.042
				c0,2.27,0.905,4.446,2.517,6.042l125.483,124.885v58.086C167.195,225.356,209.7,204.799,257,204.799
				c47.3,0,89.805,20.557,119.467,53.094v-58.086L501.949,74.922c1.613-1.596,2.517-3.772,2.517-6.042
				C504.467,66.61,503.562,64.434,501.966,62.839z"/>
			<path d="M153.408,99.746c1.604,1.69,3.849,2.654,6.187,2.654h194.816c2.33,0,4.574-0.964,6.178-2.654l81.186-85.333
				c2.347-2.475,3.012-6.11,1.655-9.25C442.091,2.031,439.01,0,435.588,0H78.408c-3.413,0-6.502,2.031-7.842,5.163
				c-1.348,3.14-0.691,6.775,1.655,9.25L153.408,99.746z"/>
		</g>
	</g>
</g>
<g>
</g>
<g>
</g>
<g>
</g>
<g>
</g>
<g>
</g>
<g>
</g>
<g>
</g>
<g>
</g>
<g>
</g>
<g>
</g>
<g>
</g>
<g>
</g>
<g>
</g>
<g>
</g>
<g>
</g>
</svg>
